# xmcd CD database file
#
# Track frame offsets:
#	150
#	24337
#	43285
#
# Disc length: 899 seconds
#
# Revision: 0
# Processed by: cddbd v1.5.1PL0 Copyright (c) Steve Scherf et al.
# Submitted via: CDex 1.51
#
DISCID=1e038103
DTITLE=Plastic Tree - ツメタイヒカリ
DYEAR=1900
DGENRE=Rock
TTITLE0=01 ツメタイヒカリ
TTITLE1=02 ブランコから
TTITLE2=03 ツメタイヒカリ(inst)
EXTD=
EXTT0=
EXTT1=
EXTT2=
PLAYORDER=
